<svg xmlns="http://www.w3.org/2000/svg" viewBox="0 0 1003.23 712.23"><g id="Layer_2" data-name="Layer 2"><g style="opacity:0.4"><path d="M351.72,155.13H321.83c0-26.61-20.76-46.59-46.36-46.59a46.12,46.12,0,0,0-21.38,5.13,42.44,42.44,0,0,0-52-17.4A69.16,69.16,0,0,0,71.21,136.56a32.45,32.45,0,0,0-17.55,18.69,33.72,33.72,0,0,0,5.7,66.91H351.72a33.52,33.52,0,1,0,0-67Z" style="fill:#eee"/><path d="M351.72,155.13H321.83c0-26.61-20.76-46.59-46.36-46.59a46.12,46.12,0,0,0-21.38,5.13,42.44,42.44,0,0,0-52-17.4A69.14,69.14,0,0,0,83.89,84.41,69.15,69.15,0,0,1,175.43,118a42.44,42.44,0,0,1,51.95,17.41,46.11,46.11,0,0,1,21.38-5.16c25.6,0,46.36,20,46.36,46.58H325a33.37,33.37,0,0,1,31.51,44.78,33.4,33.4,0,0,0-4.8-66.47Z" style="fill:#fff"/><path d="M321.81,334.43a2.11,2.11,0,0,0,0-.26c0-10-20.76-18.06-46.36-18.06a108.47,108.47,0,0,0-21.38,2c-7.79-5-22.14-8.2-38.16-7.91a100.32,100.32,0,0,0-13.79,1.16c-11-9.17-34.93-15.53-62.65-15.53-38.2,0-69.16,12.06-69.16,26.94a11.31,11.31,0,0,0,.88,4.29c-8.14,1.37-14.51,4-17.55,7.28-15.79,1.05-27.81,6.4-27.81,12.85h0c0,7.21,15,13.06,33.51,13.06H315.14c18.51,0,33.52-5.85,33.52-13.06h0C348.66,340.91,337.13,335.64,321.81,334.43Z" style="opacity:0.1"/><path d="M111.43,147.63a40.11,40.11,0,0,1,40.1,40.12c0,.26,0,.51,0,.76A37.27,37.27,0,0,1,194.89,215a33.86,33.86,0,0,0-39.29-42.7c0-.23,0-.46,0-.69a36.41,36.41,0,0,0-69.74-14.72A39.86,39.86,0,0,1,111.43,147.63Z" style="fill:#fff"/><path d="M49.83,169.24a41.94,41.94,0,0,1,23.2,7A40.06,40.06,0,0,1,82.49,160a38.29,38.29,0,0,0-52.67,14.29A42.07,42.07,0,0,1,49.83,169.24Z" style="fill:#fff"/></g><g style="opacity:0.4"><path d="M946.83,355.4H896.37c0-44.93-35-78.65-78.25-78.65A77.72,77.72,0,0,0,782,285.41,71.57,71.57,0,0,0,694.35,256a116.74,116.74,0,0,0-221,68,54.72,54.72,0,0,0-29.62,31.56,56.88,56.88,0,0,0-47,56c0,31.26,25.32,56.9,56.57,56.9H946.83a56.57,56.57,0,1,0,0-113.13Z" style="fill:#eee"/><path d="M946.83,355.4H896.37c0-44.93-35-78.65-78.25-78.65A77.72,77.72,0,0,0,782,285.41,71.57,71.57,0,0,0,694.35,256a116.69,116.69,0,0,0-199.6-20A116.68,116.68,0,0,1,649.26,292.7,71.61,71.61,0,0,1,737,322.09,77.72,77.72,0,0,1,773,313.38c43.22,0,78.26,33.7,78.26,78.62h50.45a56.36,56.36,0,0,1,53.19,75.58,56.37,56.37,0,0,0-8.1-112.18Z" style="fill:#fff"/><path d="M896.34,658c0-.14,0-.29,0-.44,0-16.83-35-30.48-78.25-30.48A183.42,183.42,0,0,0,782,630.55c-13.15-8.41-37.37-13.84-64.41-13.35a171.55,171.55,0,0,0-23.27,2c-18.62-15.49-59-26.22-105.76-26.22-64.47,0-116.74,20.36-116.74,45.48a18.86,18.86,0,0,0,1.49,7.23c-13.74,2.32-24.5,6.77-29.62,12.29-26.65,1.78-47,10.8-47,21.69h0c0,12.18,25.32,22,56.57,22H885.09c31.24,0,56.57-9.86,56.57-22h0C941.66,669,922.19,660.08,896.34,658Z" style="opacity:0.1"/><path d="M541.23,342.73a67.71,67.71,0,0,1,67.69,67.72c0,.43,0,.86,0,1.28a63.68,63.68,0,0,1,12.67-1.28A62.89,62.89,0,0,1,682.1,456.4a57.16,57.16,0,0,0-66.31-72.06c0-.39,0-.77,0-1.16a61.47,61.47,0,0,0-117.73-24.85A67.33,67.33,0,0,1,541.23,342.73Z" style="fill:#fff"/><path d="M437.25,379.2A70.8,70.8,0,0,1,476.4,391a67.69,67.69,0,0,1,16-27.35,64.61,64.61,0,0,0-88.9,24.11A70.94,70.94,0,0,1,437.25,379.2Z" style="fill:#fff"/></g></g></svg>