<svg xmlns="http://www.w3.org/2000/svg" viewBox="0 0 376.89 374.89"><g id="Layer_2" data-name="Layer 2"><path d="M239.22,166.4c-1.43-8.94-9.09-15.14-17.11-13.86a12,12,0,0,0-1.22.27c-2.63-5.35-7-9-11.86-9.71a23.49,23.49,0,0,0-24.71-12.28c-.56.08-1.11.2-1.66.33a30.6,30.6,0,0,0-34.16-22.37,29.6,29.6,0,0,0-9.16,3c-6.52-12.67-18.1-20.42-29.85-18.54-12.33,2-21.19,14-22.86,29.07a18.94,18.94,0,0,0-4.92.13c-8.62,1.38-14.87,8.35-15.28,16.35l-.36,0c-9.37,1.5-15.1,15-13.41,30.74a24,24,0,0,0-9.81-.46c-12.68,2-21.38,13.56-19.43,25.75a21.43,21.43,0,0,0,.78,3.23C12.48,202.89,5,211.63,6.35,220.27c.86,5.37,5,9.7,11,12.42.81,5,6.6,8.3,12.94,7.29a14,14,0,0,0,5-1.8c3.15,4,9.25,6.16,15.78,5.12a19,19,0,0,0,9.62-4.42,18.37,18.37,0,0,0,19.65,10A18.75,18.75,0,0,0,94,239.25a22.26,22.26,0,0,0,17.69,4.61,21.92,21.92,0,0,0,17.12-13.34,36.17,36.17,0,0,0,5-.46,34.42,34.42,0,0,0,9.56-2.92,29.17,29.17,0,0,0,9,0c9-1.44,16.14-6.75,19-13.25a28.52,28.52,0,0,0,13.36-8.64,20.84,20.84,0,0,0,5.5-.17,20,20,0,0,0,11.24-5.66,24.05,24.05,0,0,0,13.57,1.7c10.73-1.72,18.56-10,19.05-19.34A16.77,16.77,0,0,0,239.22,166.4Z" style="fill:#8db34c"/><path d="M97,235.25s-3.65-32.05,38.56-47.62c-4.49,19.52,7.93,29.49-6.55,48.54s-30.15,13.4-30.15,13.4Z" style="fill:#729c3a"/><path d="M118,264.56s25.24,20.07,6.41,60.93c-10.63-17-26.46-15.24-29.7-39s11.85-30.79,11.85-30.79Z" style="fill:#729c3a"/><path d="M101.7,227.22s-21.47-29.71-68.84-10.46c18.71,13,15.92,30.83,42.68,35.74s35.58-11.83,35.58-11.83Z" style="fill:#729c3a"/><path d="M87.23,240.36s-44.56-3.15-63.6,56.16c26.74-7.36,41.26,9.23,66.77-11.93s16.76-42.51,16.76-42.51Z" style="fill:#729c3a"/><path d="M119.47,235.2s41.35-16.9,77.95,33.51c-27.7,1.36-36.33,21.65-67.16,9.5s-29.19-35.16-29.19-35.16Z" style="fill:#729c3a"/><path d="M133.85,140.48l9.49,50.61a20.5,20.5,0,0,0,26.84,15.6l63.08-21.78a20.5,20.5,0,0,0,11.5-28.83L221,110.39Z" style="fill:#48443d;stroke:#221f20;stroke-miterlimit:10;stroke-width:4.701126718632581px"/><polygon points="150.5 136.02 169.6 206.89 233.72 184.75 204.11 116.77 150.5 136.02" style="fill:#7b766e;stroke:#000;stroke-miterlimit:10;stroke-width:4.701126718632581px"/><path d="M199.78,183.14a4.22,4.22,0,1,1-2.76-8" style="fill:none;stroke:#000;stroke-linecap:round;stroke-miterlimit:10;stroke-width:3.620325556127348px"/><path d="M181,162.78A21.44,21.44,0,0,1,151.13,168" style="fill:none;stroke:#191919;stroke-linecap:round;stroke-miterlimit:10;stroke-width:4.701126718632581px"/><path d="M197,157.25A21.45,21.45,0,0,0,223.78,143" style="fill:none;stroke:#191919;stroke-linecap:round;stroke-miterlimit:10;stroke-width:4.701126718632581px"/><path d="M188.52,206.27a4.88,4.88,0,0,0,1.16-8.64c-6.07-4.14-15.66-4.87-22.52-2.5-7.65,2.64-9.6,8.32-8.39,15.37a4.89,4.89,0,0,0,6.4,3.83Z" style="fill:#7b766e;stroke:#000;stroke-miterlimit:10;stroke-width:4.701126718632581px"/><path d="M218.75,195.83a4.87,4.87,0,0,1-6.24-6.08c2.22-7,9.32-13.49,16.19-15.86,7.64-2.64,12.68.62,16.08,6.92a4.88,4.88,0,0,1-2.68,7Z" style="fill:#7b766e;stroke:#000;stroke-miterlimit:10;stroke-width:4.701126718632581px"/><path d="M241.5,166.12h0a13.25,13.25,0,0,1-16.91,6.6l-1.93-.78a5,5,0,0,1-3.07-5.6l.89-4.72a1.69,1.69,0,0,0-1.54-2l-2.48-.17a5,5,0,0,1-5.14-4.81h0a4.77,4.77,0,0,1,4-4.91L226,148l19,9.9Z" style="fill:#7b766e;stroke:#000;stroke-miterlimit:10;stroke-width:4.701126718632581px"/><path d="M225.42,106.8l12.72,5.49A25.16,25.16,0,0,1,252,143.56l-2.43,7.07a13.14,13.14,0,0,1-16.45,8.23h0A13.14,13.14,0,0,1,225,141.21l2.28-5.35a2,2,0,0,0-1.17-2.72l-9.82-3.64a12.24,12.24,0,0,1-7-16.33h0A12.24,12.24,0,0,1,225.42,106.8Z" style="fill:#48443d;stroke:#221f20;stroke-miterlimit:10;stroke-width:4.701126718632581px"/><path d="M153.93,194.75h0a13.26,13.26,0,0,0,17.38-5.24l1-1.81a5,5,0,0,0-1-6.3l-3.61-3.16a1.7,1.7,0,0,1,0-2.53l1.84-1.66a5,5,0,0,0,1.08-7h0a4.76,4.76,0,0,0-6.19-1.39L155,171l-8.87,19.52Z" style="fill:#7b766e;stroke:#000;stroke-miterlimit:10;stroke-width:4.701126718632581px"/><path d="M119.61,144.92l-3.23,13.48a25.15,25.15,0,0,0,16.76,29.79l7.12,2.29a13.14,13.14,0,0,0,16.44-8.24h0a13.13,13.13,0,0,0-9.31-17l-5.65-1.38a2.06,2.06,0,0,1-1.48-2.57l3-10a12.22,12.22,0,0,0-8.9-15.36h0A12.21,12.21,0,0,0,119.61,144.92Z" style="fill:#48443d;stroke:#221f20;stroke-miterlimit:10;stroke-width:4.701126718632581px"/><circle cx="115.5" cy="119.73" r="12.7" style="fill:#7b766e;stroke:#000;stroke-miterlimit:10;stroke-width:4.701126718632581px"/><circle cx="223.12" cy="82.58" r="12.7" style="fill:#7b766e;stroke:#000;stroke-miterlimit:10;stroke-width:4.701126718632581px"/><path d="M166.78,25.11l-2.55-9.5a2,2,0,0,0-3-1.12l-10.83,7.22c-.69-.84-1.77-2.12-3.37-4a2,2,0,0,0-2.75-.27c-21.45,17.14-25.86,29.47-25.86,29.47h0c-12.9,18.88-16.59,46.17-9.24,67.58A60.92,60.92,0,0,0,224.42,74.89C216.08,50.61,191.91,29.09,166.78,25.11Z" style="fill:#48443d;stroke:#221f20;stroke-miterlimit:10;stroke-width:4.701126718632581px"/><path d="M197,89.8a22.53,22.53,0,0,0-.15-15C193,64,182,57.92,172.4,61.34a16.56,16.56,0,0,0-5,2.82,28.78,28.78,0,0,1-19.07,6.55,16.51,16.51,0,0,0-5.66.83c-9.65,3.17-14.64,14.76-11,25.65a22.48,22.48,0,0,0,9.09,11.93,5.88,5.88,0,0,1,1.88,7.92c-3.51,5.49-4.73,11.3-2.94,16.54,4.3,12.5,24.16,17,44.36,10.08s33.11-22.7,28.82-35.2c-1.8-5.24-6.33-9.08-12.48-11.26A5.87,5.87,0,0,1,197,89.8Z" style="fill:#7b766e"/><circle cx="152.4" cy="96.32" r="5.21" style="fill:#202020"/><circle cx="180.87" cy="86.38" r="5.21" style="fill:#202020"/><path d="M160.54,115.77a4.73,4.73,0,0,1-3.06-2.72c-1.33-3.86,4.4-9.33,12.81-12.24s16.3-2.12,17.63,1.73c.49,1.41,0,3-1.16,4.68" style="fill:none;stroke:#221f20;stroke-linecap:round;stroke-miterlimit:10;stroke-width:4.701126718632581px"/><path d="M201,115.37c-4.33,2.79-12.1,6.33-21.21,9.48-9.74,3.36-18.55,5.43-23.56,5.7" style="fill:none;stroke:#221f20;stroke-linecap:round;stroke-miterlimit:10;stroke-width:4.51272063983536px"/><line x1="196.46" y1="70.95" x2="180.53" y2="72.68" style="fill:none;stroke:#202020;stroke-linecap:round;stroke-miterlimit:10;stroke-width:4.701126718632581px"/><line x1="131.74" y1="93.29" x2="145.35" y2="84.82" style="fill:none;stroke:#202020;stroke-linecap:round;stroke-miterlimit:10;stroke-width:4.701126718632581px"/><path d="M370.16,208.93c-1.69-10.57-10.75-17.9-20.23-16.39-.49.08-1,.2-1.43.32-3.11-6.32-8.33-10.66-14-11.47a27.76,27.76,0,0,0-29.2-14.52c-.67.11-1.32.24-2,.39-4.89-17.73-22.14-29.35-40.38-26.43a35.11,35.11,0,0,0-10.82,3.6c-7.71-15-21.39-24.13-35.27-21.91-14.57,2.33-25,16.52-27,34.35a22.63,22.63,0,0,0-5.8.15c-10.19,1.63-17.58,9.87-18.06,19.32l-.43,0c-11.07,1.77-17.85,17.7-15.85,36.32a28.27,28.27,0,0,0-11.59-.54c-15,2.4-25.26,16-23,30.43a25.33,25.33,0,0,0,.92,3.82c-13.85,5.62-22.72,16-21.09,26.16,1,6.34,5.91,11.46,13,14.68,1,5.95,7.8,9.8,15.29,8.61a16.57,16.57,0,0,0,5.89-2.13c3.71,4.72,10.92,7.28,18.64,6.05a22.45,22.45,0,0,0,11.37-5.22,21.66,21.66,0,0,0,23.21,11.81A22.14,22.14,0,0,0,198.57,295a26.32,26.32,0,0,0,20.9,5.45,25.91,25.91,0,0,0,20.23-15.77,45.26,45.26,0,0,0,5.88-.54,40.91,40.91,0,0,0,11.29-3.45,34.12,34.12,0,0,0,10.62-.06c10.64-1.7,19.08-8,22.41-15.65a33.7,33.7,0,0,0,15.78-10.21,25.53,25.53,0,0,0,6.51-.19,23.57,23.57,0,0,0,13.27-6.7,28.52,28.52,0,0,0,16.05,2c12.67-2,21.93-11.8,22.51-22.86A19.8,19.8,0,0,0,370.16,208.93Z" style="fill:#8db34c"/><path d="M138.13,303.32s.34-21.18,29.15-27.75c-4.58,12.33,2.67,19.87-8.38,31.06s-20.77,6.18-20.77,6.18Z" style="fill:#729c3a"/><path d="M149.35,324.19s14.75,15.22-1,40.24c-5.49-12-15.94-12.17-16-27.89s10.32-19.06,10.32-19.06Z" style="fill:#729c3a"/><path d="M141.87,298.49s-11.47-21.17-44-12.64c11.1,10,7.77,21.43,24.78,26.9s24.18-4.7,24.18-4.7Z" style="fill:#729c3a"/><path d="M131.33,305.83S102.58,300,85.15,337c18-2.53,26.1,9.5,44.5-2.13s14.52-26.27,14.52-26.27Z" style="fill:#729c3a"/><path d="M152.77,305.19s28.36-7.51,47.94,28.43c-18.16-1.46-25.49,11-44.55.5s-16-25.37-16-25.37Z" style="fill:#729c3a"/><path d="M283.81,296.6h30.53a6.53,6.53,0,0,1,6.53,6.53v0a6.53,6.53,0,0,1-6.53,6.53H283.81a0,0,0,0,1,0,0V296.6A0,0,0,0,1,283.81,296.6Z" transform="translate(-99.76 156.12) rotate(-24.99)" style="fill:#c6443e;stroke:#221f20;stroke-linecap:round;stroke-miterlimit:10;stroke-width:4.472933162267737px"/><path d="M273.32,223.58l1.54-25.19a4.94,4.94,0,0,1,3.49-4.43l36.21-11a4.91,4.91,0,0,1,5.93,2.67s7.6,12.54-8,34S273.32,223.58,273.32,223.58Z" style="fill:#c6443e;stroke:#221f20;stroke-linecap:round;stroke-miterlimit:10;stroke-width:4.472933162267737px"/><path d="M220.4,229.53l-10.93-22.75a5,5,0,0,0-4.91-2.78l-37.69,3.46a4.93,4.93,0,0,0-4.48,4.71s-2.3,14.48,20.21,28.5S220.4,229.53,220.4,229.53Z" style="fill:#c6443e;stroke:#221f20;stroke-linecap:round;stroke-miterlimit:10;stroke-width:4.472933162267737px"/><path d="M209.22,271.54l.77,66.67a4.25,4.25,0,0,0,4.93,4.15l97.61-15.62a4.25,4.25,0,0,0,3.38-5.48l-20.07-63.58Z" style="fill:#c6443e;stroke:#221f20;stroke-linecap:round;stroke-miterlimit:10;stroke-width:4.472933162267737px"/><path d="M231.45,324.64l.35,15,63.73-10.2-4.77-14.86a24,24,0,0,0-27-16.34l-12.4,2.14A24,24,0,0,0,231.45,324.64Z" style="fill:#f8dca6;stroke:#000;stroke-miterlimit:10;stroke-width:4.472933162267737px"/><path d="M234.5,339.23a4.65,4.65,0,0,0,2.51-7.91c-5-4.87-13.88-7.13-20.7-6-7.6,1.22-10.37,6.21-10.4,13a4.65,4.65,0,0,0,5.38,4.63Z" style="fill:#f8dca6;stroke:#000;stroke-miterlimit:10;stroke-width:4.472933162267737px"/><path d="M285.49,330a4.64,4.64,0,0,1-4.85-6.73c3.24-6.2,11-11.11,17.78-12.2,7.6-1.21,11.79,2.67,13.94,9.13a4.67,4.67,0,0,1-3.66,6.09Z" style="fill:#f8dca6;stroke:#000;stroke-miterlimit:10;stroke-width:4.472933162267737px"/><path d="M210.54,300.35a64,64,0,0,0,94.21-18.77l-7.94-25.16-86.62,13.86Z" style="opacity:0.30000000000000004"/><path d="M291.11,293.43a56.36,56.36,0,1,0-67.53,9.9" style="fill:#c6443e"/><path d="M220.59,300.66a59.62,59.62,0,0,1-5.79-3.88,58,58,0,0,1-21.14-59.88" style="fill:#c6443e;stroke:#221f20;stroke-linecap:round;stroke-miterlimit:10;stroke-width:4.472933162267737px"/><path d="M298.62,219.38a58,58,0,0,1-4.14,68.31" style="fill:#c6443e;stroke:#221f20;stroke-linecap:round;stroke-miterlimit:10;stroke-width:4.472933162267737px"/><path d="M203,216.76a57.9,57.9,0,0,1,80.86-12.94" style="fill:#c6443e;stroke:#221f20;stroke-linecap:round;stroke-miterlimit:10;stroke-width:4.472933162267737px"/><path d="M248.42,285.78H269.5a0,0,0,0,1,0,0v16.29A10.54,10.54,0,0,1,259,312.62h0a10.54,10.54,0,0,1-10.54-10.54V285.78a0,0,0,0,1,0,0Z" transform="translate(-44.02 44.67) rotate(-9.09)" style="fill:#ee8ace;stroke:#221f20;stroke-miterlimit:10;stroke-width:4.451744488409602px"/><line x1="256.84" y1="285.95" x2="259.57" y2="302.99" style="fill:none;stroke:#221f20;stroke-miterlimit:10;stroke-width:4.451744488409602px"/><path d="M245,203.4a44.18,44.18,0,0,0-11.82,2" style="fill:none;stroke:#d85b56;stroke-linecap:round;stroke-miterlimit:10;stroke-width:4.472933162267737px"/><path d="M222.38,210.33a44.52,44.52,0,0,0-19.2,26" style="fill:none;stroke:#d85b56;stroke-linecap:round;stroke-miterlimit:10;stroke-width:4.472933162267737px"/><path d="M246.84,274.65a2.72,2.72,0,0,1,2.35.37c4.72,3.27,7.58,7.87,7.38,12.84-.39,9.27-11.3,16.34-24.38,15.8-11.88-.49-21.46-7.11-22.83-15.26a2.82,2.82,0,0,1,2-3.15Z" style="fill:#f8dca6;stroke:#221f20;stroke-miterlimit:10;stroke-width:4.451744488409602px"/><path d="M262.62,272.13a2.73,2.73,0,0,0-2.12,1.08c-3.46,4.58-4.75,9.84-3,14.5,3.26,8.69,15.83,12,28.09,7.4,11.13-4.17,18.17-13.44,16.92-21.62a2.8,2.8,0,0,0-2.86-2.37Z" style="fill:#f8dca6;stroke:#221f20;stroke-miterlimit:10;stroke-width:4.451744488409602px"/><circle cx="233.49" cy="285.04" r="1.39" style="fill:#531b19"/><circle cx="237.8" cy="290.31" r="1.39" style="fill:#531b19"/><circle cx="239.54" cy="284.49" r="1.39" style="fill:#531b19"/><circle cx="272.53" cy="277.76" r="1.39" style="fill:#531b19"/><circle cx="270.08" cy="284.11" r="1.39" style="fill:#531b19"/><circle cx="266.61" cy="279.12" r="1.39" style="fill:#531b19"/><line x1="254.88" y1="275.89" x2="256.65" y2="286.44" style="fill:none;stroke:#221f20;stroke-linecap:round;stroke-miterlimit:10;stroke-width:4.472933162267737px"/><path d="M236.13,271.39s13.41-11.93,34.54-5.81" style="fill:none;stroke:#221f20;stroke-linecap:round;stroke-miterlimit:10;stroke-width:4.472933162267737px"/><path d="M267,267.16l-11.76,13L240,271.48A1.47,1.47,0,0,1,240,269h0a33.06,33.06,0,0,1,26.34-4.21h0A1.46,1.46,0,0,1,267,267.16Z" style="fill:#494949;stroke:#221f20;stroke-miterlimit:10;stroke-width:4.472933162267737px"/><line x1="213.53" y1="248.59" x2="227.67" y2="242.89" style="fill:none;stroke:#202020;stroke-linecap:round;stroke-miterlimit:10;stroke-width:4.472933162267737px"/><line x1="284.77" y1="237.19" x2="269.55" y2="236.19" style="fill:none;stroke:#202020;stroke-linecap:round;stroke-miterlimit:10;stroke-width:4.472933162267737px"/><circle cx="223.4" cy="259.05" r="4.96" style="fill:#202020"/><circle cx="279.21" cy="250.11" r="4.96" style="fill:#202020"/></g></svg>