<svg xmlns="http://www.w3.org/2000/svg" viewBox="0 0 208.31 98.25"><g id="Layer_2" data-name="Layer 2"><path d="M17.2,21.63A19.8,19.8,0,0,1,41.11,36.79a26.6,26.6,0,0,1,.41,2.84,2,2,0,0,1-1.58,2.19L15.1,47.25a7.88,7.88,0,0,0,9.46,5.09,13.83,13.83,0,0,0,6.7-4.07,1.85,1.85,0,0,1,2.59-.57l6.53,5.08a2.29,2.29,0,0,1,.55,3c-2.83,4.41-7.51,7.82-14,9.24a22.25,22.25,0,0,1-9.7-43.42Zm8.55,14.83a5.72,5.72,0,0,0-6.55-3.67,5.9,5.9,0,0,0-4.52,6.09Z" style="fill:#fff"/><path d="M49.72,2a2.08,2.08,0,0,1,2-2H63.39a2.08,2.08,0,0,1,2,2V62.73a2.08,2.08,0,0,1-2,2H51.73a2.08,2.08,0,0,1-2-2Z" style="fill:#fff"/><path d="M76.84,2a2.08,2.08,0,0,1,2-2H90.51a2.08,2.08,0,0,1,2,2V62.73a2.08,2.08,0,0,1-2,2H78.85a2.08,2.08,0,0,1-2-2Z" style="fill:#fff"/><path d="M103.32,8.48A8.41,8.41,0,0,1,111.69,0a8.5,8.5,0,0,1,8.48,8.48,8.41,8.41,0,0,1-8.48,8.36A8.31,8.31,0,0,1,103.32,8.48Zm.64,15.9a2,2,0,0,1,2-2h11.66a2,2,0,0,1,2,2V62.73a2.08,2.08,0,0,1-2,2H106a2.08,2.08,0,0,1-2-2Z" style="fill:#fff"/><path d="M147.09,21.37a19.8,19.8,0,0,1,22.42,17.29,25,25,0,0,1,.14,2.87,2,2,0,0,1-1.77,2l-25.24,3.12a7.87,7.87,0,0,0,9,5.94,13.7,13.7,0,0,0,7-3.43,1.84,1.84,0,0,1,2.63-.33l6,5.66a2.27,2.27,0,0,1,.27,3.06c-3.22,4.14-8.19,7.1-14.82,7.92a22,22,0,0,1-24.7-19.36A22,22,0,0,1,147.09,21.37Zm7.16,15.55a5.71,5.71,0,0,0-6.19-4.25A5.9,5.9,0,0,0,143,38.31Z" style="fill:#fff"/><path d="M174,58.57l4.34-7a1.81,1.81,0,0,1,2.29-.65s4.72,3.19,9.25,3.59A1.87,1.87,0,0,0,192,52.84c.09-1.06-.41-2.59-5.62-5-8-3.58-11.14-8.65-10.56-15.19.63-7.07,6.2-12.32,17.6-11.3,6.65.59,11.55,2.84,13.74,4.52.89.72,1.55,1.73.82,2.73l-4.54,6.83a1.89,1.89,0,0,1-2.28.44s-4.63-2.86-8.75-3.23c-1.37-.12-2.35.11-2.45,1.27s1,2.21,4.45,3.8c8.28,3.72,13.89,7.62,13.14,16.06-.66,7.39-7.11,12.87-19,11.81-7-.62-12.08-2.88-14-4.76C173.82,60.15,173.34,59.47,174,58.57Z" style="fill:#fff"/><path d="M10.53,96.4a1.52,1.52,0,0,1-.4-1,1.3,1.3,0,0,1,1.29-1.32,2.13,2.13,0,0,1,1.22.43,4.07,4.07,0,0,0,2.24.68c1.87,0,2.9-1,2.9-3.14V90.86h0c-.65,1-1.73,1.51-3.46,1.51a4.31,4.31,0,0,1-4.35-3.24,10,10,0,0,1-.43-3.21,10.29,10.29,0,0,1,.43-3.27,4.34,4.34,0,0,1,4.35-3.25,3.87,3.87,0,0,1,3.51,1.65h0v-.3a1.43,1.43,0,0,1,1.46-1.19,1.46,1.46,0,0,1,1.51,1.6V91.67c0,4.16-2.13,6.22-6.08,6.22A6.24,6.24,0,0,1,10.53,96.4Zm7-12.57a2.19,2.19,0,0,0-2.3-1.72,2.2,2.2,0,0,0-2.3,1.72,7.53,7.53,0,0,0,0,4.14,2.2,2.2,0,0,0,2.3,1.73A2.2,2.2,0,0,0,17.48,88a7.29,7.29,0,0,0,0-4.14Z" style="fill:#fff"/><path d="M14.72,98.25a6.57,6.57,0,0,1-4.45-1.6h0a1.94,1.94,0,0,1-.5-1.25,1.66,1.66,0,0,1,1.66-1.69,2.43,2.43,0,0,1,1.42.5,3.78,3.78,0,0,0,2,.61c1.75,0,2.53-.85,2.53-2.77V91.8a4.65,4.65,0,0,1-3.12.94,4.68,4.68,0,0,1-4.7-3.49,10.6,10.6,0,0,1-.45-3.33,10.79,10.79,0,0,1,.45-3.39A4.7,4.7,0,0,1,14.29,79a4.44,4.44,0,0,1,3.32,1.2,1.78,1.78,0,0,1,1.68-1,1.82,1.82,0,0,1,1.88,2V91.67C21.17,96,18.94,98.25,14.72,98.25Zm-3.92-2.1a5.84,5.84,0,0,0,3.92,1.37c3.79,0,5.72-2,5.72-5.85V81.16a1.1,1.1,0,0,0-1.15-1.23,1.07,1.07,0,0,0-1.1.86v.63h-.56l-.13-.17a3.56,3.56,0,0,0-3.21-1.48,4,4,0,0,0-4,3,10.23,10.23,0,0,0-.41,3.16,9.41,9.41,0,0,0,.42,3.1,3.94,3.94,0,0,0,4,3,3.39,3.39,0,0,0,3.15-1.35l.11-.16h.56l0,.36v1.19c0,2.32-1.1,3.5-3.26,3.5a4.32,4.32,0,0,1-2.44-.74,1.78,1.78,0,0,0-1-.37.94.94,0,0,0-.93,1A1.16,1.16,0,0,0,10.8,96.15Zm4.38-6.09a2.55,2.55,0,0,1-2.64-2,6.62,6.62,0,0,1-.32-2.19,6.73,6.73,0,0,1,.32-2.18,2.56,2.56,0,0,1,2.64-2,2.56,2.56,0,0,1,2.64,2,6.62,6.62,0,0,1,.32,2.17,6.47,6.47,0,0,1-.32,2.2A2.54,2.54,0,0,1,15.18,90.06Zm0-7.59A1.84,1.84,0,0,0,13.23,84a6.93,6.93,0,0,0,0,3.9,1.84,1.84,0,0,0,1.95,1.48,1.84,1.84,0,0,0,1.95-1.47,5.91,5.91,0,0,0,.28-2A5.7,5.7,0,0,0,17.13,84h0A1.84,1.84,0,0,0,15.18,82.47Z" style="fill:#fff"/><path d="M65.69,91.46a1.42,1.42,0,0,1-1.51,1.4,1.43,1.43,0,0,1-1.27-.62l-.44-.65h0A4.9,4.9,0,0,1,58.61,93c-3.08,0-4.73-1.46-4.73-3.94,0-2.81,2-4.16,5.19-4.16h2.67a.15.15,0,0,0,.17-.17v-.32C61.91,82.92,61,82,59,82a5.85,5.85,0,0,0-2.38.54,2.12,2.12,0,0,1-.78.17,1.19,1.19,0,0,1-1.25-1.25,1.32,1.32,0,0,1,.76-1.19,8.13,8.13,0,0,1,4-.89c3.7,0,5.46,1.84,5.46,5.06v4.1a2.31,2.31,0,0,0,.27,1.3l.41.7A1.9,1.9,0,0,1,65.69,91.46Zm-3.78-2.95V87.35c0-.11-.06-.16-.17-.16H59.58c-2,0-2.81.56-2.81,1.75s.79,1.62,2.27,1.62C60.8,90.56,61.91,89.89,61.91,88.51Z" style="fill:#fff"/><path d="M58.61,93.39c-3.24,0-5.1-1.57-5.1-4.31,0-2.92,2-4.53,5.56-4.53h2.47v-.12c0-.88-.26-2-2.55-2a5.57,5.57,0,0,0-2.22.5c-1.39.56-2.55-.16-2.55-1.41a1.66,1.66,0,0,1,1-1.51A8.19,8.19,0,0,1,59.31,79c3.81,0,5.83,1.87,5.83,5.42v4.1a2,2,0,0,0,.22,1.13l.4.69a2.19,2.19,0,0,1,.29,1.08,1.78,1.78,0,0,1-1.87,1.77,1.83,1.83,0,0,1-1.58-.78l-.19-.3A5.58,5.58,0,0,1,58.61,93.39Zm.46-8.11c-2.2,0-4.83.66-4.83,3.8,0,2.31,1.55,3.58,4.37,3.58a4.58,4.58,0,0,0,3.56-1.3l.11-.13h.36l.14.16.43.65a1.07,1.07,0,0,0,1,.46,1.06,1.06,0,0,0,1.14-1,1.49,1.49,0,0,0-.19-.72l-.41-.7a2.71,2.71,0,0,1-.32-1.48v-4.1c0-3.12-1.71-4.69-5.09-4.69a7.59,7.59,0,0,0-3.79.84,1,1,0,0,0-.57.87.81.81,0,0,0,.88.88,1.92,1.92,0,0,0,.64-.13A6.19,6.19,0,0,1,59,81.66c2.71,0,3.28,1.51,3.28,2.77v.32a.51.51,0,0,1-.53.53Zm0,5.65c-2.29,0-2.63-1.25-2.63-2,0-1.9,1.81-2.12,3.17-2.12h2.16a.51.51,0,0,1,.53.53v1.16C62.27,90.05,61.09,90.93,59,90.93Zm.54-3.38c-2.15,0-2.44.67-2.44,1.39,0,.54.19,1.26,1.9,1.26,1.14,0,2.5-.29,2.5-1.69v-1Z" style="fill:#fff"/><path d="M98.33,81.16a1.52,1.52,0,0,1,3-.24h0a4,4,0,0,1,3.43-1.52,4.2,4.2,0,0,1,3.57,1.73h0a5.33,5.33,0,0,1,4.17-1.73,4.49,4.49,0,0,1,4.73,4.84v7a1.52,1.52,0,1,1-3,0V84.94c0-1.67-.84-2.83-2.46-2.83s-2.49,1.16-2.49,2.83v6.33a1.51,1.51,0,1,1-3,0V84.94c0-1.67-.84-2.83-2.46-2.83s-2.49,1.16-2.49,2.83v6.33a1.52,1.52,0,1,1-3,0Z" style="fill:#fff"/><path d="M115.79,93.23a1.82,1.82,0,0,1-1.88-2V84.94a2.15,2.15,0,0,0-2.09-2.47c-1.31,0-2.12,1-2.12,2.47v6.33a1.88,1.88,0,1,1-3.76,0V84.94a2.15,2.15,0,0,0-2.09-2.47c-1.31,0-2.12,1-2.12,2.47v6.33a1.88,1.88,0,1,1-3.76,0V81.16a1.82,1.82,0,0,1,1.88-2,1.78,1.78,0,0,1,1.67,1,4.71,4.71,0,0,1,3.3-1.17,4.61,4.61,0,0,1,3.61,1.56A5.72,5.72,0,0,1,112.58,79a4.82,4.82,0,0,1,5.09,5.2v7A1.82,1.82,0,0,1,115.79,93.23Zm-4-11.49c1.74,0,2.82,1.23,2.82,3.2v6.33a1.15,1.15,0,1,0,2.3,0v-7a4.1,4.1,0,0,0-4.36-4.47,5,5,0,0,0-3.9,1.61l-.11.12h-.35l-.13-.16a3.81,3.81,0,0,0-3.27-1.57,3.59,3.59,0,0,0-3.13,1.36l-.11.15h-.5L101,81a1.11,1.11,0,0,0-1.15-1,1.1,1.1,0,0,0-1.15,1.23V91.27a1.15,1.15,0,1,0,2.3,0V84.94c0-1.94,1.11-3.2,2.85-3.2s2.82,1.23,2.82,3.2v6.33a1.15,1.15,0,1,0,2.3,0V84.94C109,83,110.09,81.74,111.82,81.74Z" style="fill:#fff"/><path d="M150.6,89.4a10.13,10.13,0,0,1-.46-3.19,10.32,10.32,0,0,1,.43-3.21,5.76,5.76,0,0,1,10.68,0,10.42,10.42,0,0,1,.43,3.13,1,1,0,0,1-1.06,1.06h-7.27a.14.14,0,0,0-.16.16,2.83,2.83,0,0,0,.19,1,2.86,2.86,0,0,0,3,2,4.35,4.35,0,0,0,2.67-.89,2,2,0,0,1,1.11-.43,1.21,1.21,0,0,1,1.27,1.27,1.45,1.45,0,0,1-.62,1.19,7,7,0,0,1-4.7,1.56C153.27,93,151.33,91.67,150.6,89.4Zm7.86-5.75a2.78,2.78,0,0,0-5.11,0,3.46,3.46,0,0,0-.16,1.1.15.15,0,0,0,.16.17h5.11c.11,0,.16-.06.16-.17A3.2,3.2,0,0,0,158.46,83.65Z" style="fill:#fff"/><path d="M156.06,93.39c-2.9,0-5-1.41-5.81-3.88a10.27,10.27,0,0,1-.48-3.3,10.9,10.9,0,0,1,.45-3.33,6.13,6.13,0,0,1,11.37,0,10.91,10.91,0,0,1,.45,3.25,1.34,1.34,0,0,1-1.42,1.42h-7.05a2.8,2.8,0,0,0,.15.67A2.51,2.51,0,0,0,156.33,90a4,4,0,0,0,2.47-.83,2.25,2.25,0,0,1,1.31-.5,1.57,1.57,0,0,1,1.64,1.64,1.8,1.8,0,0,1-.76,1.47A7.42,7.42,0,0,1,156.06,93.39Zm-.17-13.62a4.9,4.9,0,0,0-5,3.34,10,10,0,0,0-.42,3.1,9.79,9.79,0,0,0,.44,3.08h0c.7,2.17,2.52,3.37,5.12,3.37a6.69,6.69,0,0,0,4.47-1.49,1,1,0,0,0,.48-.9.84.84,0,0,0-.9-.91,1.69,1.69,0,0,0-.9.37,4.79,4.79,0,0,1-2.88,1,3.37,3.37,0,0,1-3.5-3.34.5.5,0,0,1,.52-.53h7.27a.62.62,0,0,0,.69-.69,10.36,10.36,0,0,0-.41-3A4.9,4.9,0,0,0,155.89,79.77Zm2.57,5.51h-5.11a.5.5,0,0,1-.52-.53,3.56,3.56,0,0,1,.18-1.22,3.15,3.15,0,0,1,5.8,0,3.86,3.86,0,0,1,.18,1.22A.51.51,0,0,1,158.46,85.28Zm-4.9-.73h4.69a2.47,2.47,0,0,0-.14-.79h0a2.15,2.15,0,0,0-2.19-1.42,2.19,2.19,0,0,0-2.22,1.42A2.77,2.77,0,0,0,153.56,84.55Z" style="fill:#fff"/><path d="M194.67,91.7a1.38,1.38,0,0,1,.65-2.59,1.93,1.93,0,0,1,1,.29,5.93,5.93,0,0,0,3.32,1.06c1.49,0,2.41-.57,2.41-1.54,0-.81-.46-1.27-2.17-1.44l-1.4-.13c-2.68-.3-4-1.62-4-3.84,0-2.49,1.78-4.11,5-4.11a8.48,8.48,0,0,1,4,1,1.42,1.42,0,0,1,.92,1.24,1.25,1.25,0,0,1-1.27,1.32,2,2,0,0,1-1-.29,6.6,6.6,0,0,0-2.81-.71c-1.35,0-2,.6-2,1.35s.48,1.22,2.13,1.38l1.41.14c2.76.27,4,1.67,4,3.84,0,2.59-1.95,4.37-5.49,4.37A8.66,8.66,0,0,1,194.67,91.7Z" style="fill:#fff"/><path d="M199.43,93.39a9.16,9.16,0,0,1-5-1.38,1.71,1.71,0,0,1-.89-1.53,1.78,1.78,0,0,1,2.87-1.39,5.61,5.61,0,0,0,3.14,1c.48,0,2-.08,2-1.17,0-.4,0-.9-1.83-1.07l-1.41-.14c-3.58-.4-4.33-2.5-4.33-4.2,0-2.76,2.08-4.47,5.42-4.47a8.87,8.87,0,0,1,4.12,1,1.81,1.81,0,0,1,1.11,1.57,1.6,1.6,0,0,1-1.63,1.69A2.31,2.31,0,0,1,202,83a6.31,6.31,0,0,0-2.64-.66c-1,0-1.61.36-1.61,1,0,.32,0,.84,1.81,1l1.4.13c3.6.36,4.36,2.48,4.36,4.21C205.28,91.57,203,93.39,199.43,93.39Zm-4.11-3.92a1,1,0,0,0-1,1,1,1,0,0,0,.56.91h0a8.32,8.32,0,0,0,4.55,1.26c3.21,0,5.12-1.5,5.12-4,0-2.07-1.24-3.24-3.7-3.48l-1.4-.13c-1.22-.12-2.47-.42-2.47-1.75,0-.83.62-1.71,2.34-1.71a7,7,0,0,1,3,.74,1.56,1.56,0,0,0,.79.26.88.88,0,0,0,.9-1c0-.26-.08-.57-.73-.92a8.18,8.18,0,0,0-3.77-.93c-3,0-4.69,1.36-4.69,3.74,0,2.06,1.21,3.2,3.68,3.48l1.4.13c1.29.12,2.49.43,2.49,1.8,0,1.17-1.06,1.9-2.77,1.9a6.32,6.32,0,0,1-3.52-1.11A1.6,1.6,0,0,0,195.32,89.47Z" style="fill:#fff"/><path d="M176.09,4.91a9.86,9.86,0,0,0-1-1.65A6.93,6.93,0,0,0,169.62.64a7,7,0,1,0,1.73,13.84,7,7,0,0,1-1.89,2.06,2.35,2.35,0,0,0,1.4,4.24,2.29,2.29,0,0,0,1.4-.47C176.81,16.94,178.65,10,176.09,4.91Z" style="fill:#fff"/></g></svg>