<svg xmlns="http://www.w3.org/2000/svg" viewBox="0 0 44.8 35.44"><g id="Layer_2" data-name="Layer 2"><polygon points="9.63 17.72 0 9.79 0 25.65 9.63 17.72" style="fill:#fff"/><polygon points="35.17 17.72 44.8 25.65 44.8 9.79 35.17 17.72" style="fill:#fff"/><path d="M28.51,23.2a9.64,9.64,0,0,1-12.22,0l-3.51-2.9L0,30.83v.38a4.24,4.24,0,0,0,4.23,4.23H40.57a4.24,4.24,0,0,0,4.23-4.23v-.38L32,20.31Z" style="fill:#fff"/><path d="M18.83,20.12a5.64,5.64,0,0,0,7.14,0L44.8,4.62V4.23A4.24,4.24,0,0,0,40.57,0H4.23A4.24,4.24,0,0,0,0,4.23v.39Z" style="fill:#fff"/></g></svg>