<svg xmlns="http://www.w3.org/2000/svg" viewBox="0 0 44.92 36.5"><g id="Layer_2" data-name="Layer 2"><path d="M44.92,4.32a18.11,18.11,0,0,1-5.29,1.45,9.23,9.23,0,0,0,4-5.1,18.32,18.32,0,0,1-5.86,2.24,9.22,9.22,0,0,0-15.7,8.4,26.14,26.14,0,0,1-19-9.62A9.22,9.22,0,0,0,6,14a9.18,9.18,0,0,1-4.17-1.15A9.22,9.22,0,0,0,9.2,22,9.4,9.4,0,0,1,5,22.15a9.25,9.25,0,0,0,8.61,6.4A18.53,18.53,0,0,1,0,32.36,26,26,0,0,0,14.13,36.5c17.11,0,26.77-14.45,26.19-27.41A18.8,18.8,0,0,0,44.92,4.32Z" style="fill:#29abe2"/></g></svg>